<svg width="615" height="92" viewBox="0 0 615 92" fill="none" xmlns="http://www.w3.org/2000/svg">
<path d="M28.735 90V18.192H0.575V2.19199H76.223V18.192H47.935V90H28.735ZM89.103 90V2.19199H159.247V17.808H108.303V37.392H153.359V52.88H108.303V74.256H160.015V90H89.103ZM215.774 91.536C206.643 91.536 198.835 89.9573 192.35 86.8C185.865 83.5573 180.915 78.5653 177.502 71.824C174.174 65.0827 172.51 56.5067 172.51 46.096C172.51 30.736 176.265 19.344 183.774 11.92C191.369 4.41066 202.035 0.655998 215.774 0.655998C223.283 0.655998 230.025 1.936 235.998 4.49599C241.971 7.056 246.665 10.896 250.078 16.016C253.577 21.136 255.326 27.5787 255.326 35.344H236.126C236.126 31.248 235.273 27.792 233.566 24.976C231.945 22.16 229.598 20.0267 226.526 18.576C223.539 17.04 220.041 16.272 216.03 16.272C210.569 16.272 206.046 17.3387 202.462 19.472C198.963 21.6053 196.361 24.7627 194.654 28.944C193.033 33.04 192.222 38.0747 192.222 44.048V48.016C192.222 54.16 193.075 59.3227 194.782 63.504C196.489 67.6 199.049 70.7147 202.462 72.848C205.961 74.896 210.441 75.92 215.902 75.92C220.169 75.92 223.881 75.1947 227.038 73.744C230.195 72.2933 232.627 70.16 234.334 67.344C236.041 64.528 236.894 61.072 236.894 56.976H255.326C255.326 64.7413 253.619 71.184 250.206 76.304C246.878 81.424 242.227 85.264 236.254 87.824C230.281 90.2987 223.454 91.536 215.774 91.536ZM270.353 90V2.19199H289.425V37.008H328.337V2.19199H347.409V90H328.337V53.136H289.425V90H270.353ZM360.709 90V81.808L406.277 17.808H363.909V2.19199H435.077V10.384L389.509 74.256H436.101V90H360.709ZM450.478 90V2.19199H520.622V17.808H469.678V37.392H514.734V52.88H469.678V74.256H521.39V90H450.478ZM537.853 90V2.19199H555.389L590.717 49.552C591.229 50.1493 591.869 51.0027 592.637 52.112C593.405 53.136 594.13 54.16 594.813 55.184C595.496 56.208 595.965 57.0187 596.221 57.616H596.861C596.861 56.1653 596.861 54.7573 596.861 53.392C596.861 51.9413 596.861 50.6613 596.861 49.552V2.19199H614.909V90H597.373L561.277 41.488C560.424 40.2933 559.528 38.9707 558.589 37.52C557.65 36.0693 556.968 34.96 556.541 34.192H555.901C555.901 35.472 555.901 36.752 555.901 38.032C555.901 39.2267 555.901 40.3787 555.901 41.488V90H537.853Z" fill="url(#paint0_linear_2_21)"/>
<defs>
<linearGradient id="paint0_linear_2_21" x1="-57" y1="58" x2="679" y2="57.9999" gradientUnits="userSpaceOnUse">
<stop stop-color="#31F2D6"/>
<stop offset="1" stop-color="#5A90DA"/>
</linearGradient>
</defs>
</svg>
