<svg width="60" height="57" viewBox="0 0 60 57" fill="none" xmlns="http://www.w3.org/2000/svg">
<g clip-path="url(#clip0_2_52)" filter="url(#filter0_d_2_52)">
<path d="M55.9997 8.3506C55.9796 8.39008 55.9656 8.43229 55.9581 8.47585C55.9429 8.9543 55.8576 9.42804 55.7049 9.88225C55.3732 10.9076 54.8983 11.882 54.294 12.7773C53.5687 13.8787 52.7526 14.9188 51.854 15.8871C51.2842 16.5134 50.6892 17.1146 50.0778 17.7015C49.1137 18.6266 48.1026 19.5033 47.0662 20.3514C46.0298 21.1996 44.9699 22.0137 43.8828 22.7974C43.2136 23.2823 42.5353 23.7547 41.8534 24.2289C41.2722 24.6297 40.6855 25.0233 40.0935 25.4098C38.5904 26.3885 37.0638 27.3369 35.5119 28.2405C34.6027 28.7677 33.6868 29.2854 32.7644 29.7936C32.1259 30.1514 31.4783 30.4753 30.8272 30.801C29.997 31.2143 29.1667 31.6258 28.3239 32.0123C27.4448 32.4185 26.5567 32.805 25.6632 33.1825C24.8728 33.5153 24.0733 33.832 23.272 34.138C22.1035 34.5871 20.9206 34.9933 19.725 35.369C18.4969 35.7573 17.2597 36.1134 16.0044 36.4015C15.2194 36.5804 14.429 36.7396 13.6386 36.89C13.161 36.9812 12.6799 37.0456 12.1915 37.11C11.7936 37.1619 11.3921 37.1923 10.9905 37.2371C10.5581 37.2842 10.1232 37.3045 9.68822 37.2979C9.63577 37.2979 9.58332 37.2979 9.53086 37.2979H9.24508C9.18177 37.2979 9.11846 37.2979 9.0642 37.2979C8.61406 37.2994 8.16437 37.2695 7.71848 37.2084C7.28959 37.1578 6.86595 37.0704 6.45235 36.9472C5.93551 36.8034 5.4524 36.5602 5.03067 36.2315C4.70383 35.9674 4.44891 35.6266 4.28908 35.2402C4.07194 34.7348 3.97301 34.1873 3.99968 33.6388C4.03547 32.9998 4.18935 32.3727 4.45368 31.7887C4.89 30.8244 5.46312 29.9267 6.15572 29.1226C6.69506 28.4719 7.27692 27.8568 7.89755 27.2814C8.38592 26.8251 8.8996 26.3868 9.40063 25.952C9.42306 25.9298 9.44725 25.9094 9.47298 25.8911C9.50911 25.8704 9.53616 25.8371 9.54887 25.7978C9.56157 25.7584 9.55902 25.7158 9.54171 25.6782C9.41329 25.1414 9.27583 24.6046 9.16911 24.0678C9.07686 23.6008 9.00994 23.1266 8.95025 22.6525C8.8978 22.2427 8.86886 21.8276 8.83087 21.4143C8.83087 21.3266 8.83087 21.2354 8.83087 21.1495C8.83087 20.8847 8.80374 20.6127 8.80736 20.3568C8.82002 19.6411 8.84534 18.9254 8.9195 18.2097C9.00162 17.4041 9.13208 16.604 9.31019 15.8138C9.96262 12.9532 11.2365 10.2673 13.0435 7.94264C13.5045 7.34994 13.9978 6.78249 14.5212 6.24281C16.865 3.82162 19.779 2.01298 23.0025 0.978685C23.8437 0.704752 24.7039 0.491857 25.5764 0.341694C26.0304 0.266543 26.4807 0.194971 26.942 0.134135C27.2205 0.0965597 27.5045 0.0894025 27.7867 0.062563C28.4553 0.00354088 29.1271 -0.0143866 29.798 0.00888399C30.2484 0.0214091 30.7024 0.0589844 31.1455 0.0929811C31.4747 0.119821 31.8039 0.144871 32.1295 0.196761C32.6504 0.279068 33.1731 0.375691 33.6886 0.481259C34.7389 0.710708 35.7675 1.02796 36.7635 1.42959C37.8093 1.8502 38.8168 2.35842 39.7751 2.9487C40.4367 3.35187 41.0711 3.79715 41.6743 4.28173C42.1283 4.65212 42.5624 5.04398 43.0038 5.42868C43.1376 5.54498 43.2678 5.66665 43.3981 5.78654C43.8998 6.28249 44.3669 6.81155 44.7962 7.37007C44.9771 7.59373 45.158 7.82276 45.3262 8.04821C45.3588 8.09294 45.3859 8.14126 45.4347 8.21283H45.2538C38.4746 8.21283 31.6882 8.23072 24.9144 8.21283C22.4544 8.21283 19.9963 8.21283 17.5382 8.19315C17.4859 8.18774 17.4332 8.18774 17.3809 8.19315C17.325 8.19965 17.2722 8.22202 17.2289 8.25756C16.9866 8.53669 16.7496 8.82119 16.5054 9.10569C16.4908 9.13156 16.4781 9.15847 16.4675 9.18621C16.5042 9.19604 16.5417 9.20263 16.5796 9.20589C16.7062 9.20589 16.8328 9.20589 16.9576 9.20589H24.0769C27.7668 9.20589 31.4566 9.18442 35.1447 9.21663C38.7405 9.24704 42.3345 9.21663 45.9285 9.23631C45.9742 9.22818 46.0212 9.23392 46.0635 9.25276C46.1058 9.2716 46.1414 9.30267 46.1655 9.34188C46.6753 10.1373 47.0578 11.0058 47.2996 11.9167C47.3122 11.9632 47.3176 12.0133 47.3303 12.0831H32.2434C26.4204 12.0831 20.5968 12.0831 14.7726 12.0831C14.6991 12.0753 14.625 12.0921 14.5621 12.1306C14.4992 12.1692 14.4511 12.2274 14.4254 12.296C13.7655 13.5887 13.2523 14.9497 12.8952 16.3541C12.7017 17.1141 12.5585 17.8857 12.4665 18.6641C12.3945 19.2096 12.3522 19.7585 12.3399 20.3085C12.3399 20.6986 12.3109 21.0868 12.3218 21.4769C12.3326 21.867 12.3652 22.3054 12.405 22.7169C12.4448 23.1284 12.5008 23.5829 12.5623 24.0141C12.6674 24.7228 12.819 25.4239 13.0163 26.113C13.3067 27.1568 13.6861 28.1744 14.1504 29.1548C14.5105 29.9171 14.9226 30.6542 15.384 31.361C15.6011 31.692 15.8326 32.0141 16.0569 32.3398L16.1292 32.4507C15.8398 32.5598 15.545 32.6171 15.2574 32.6994C14.9698 32.7817 14.6714 32.8515 14.3783 32.9231L13.474 33.1664C11.8032 31.1614 10.5365 28.8582 9.74249 26.3814C9.70353 26.4065 9.66664 26.4346 9.63215 26.4655C9.04792 27.1401 8.4854 27.8307 7.95362 28.5482C7.54304 29.1011 7.15053 29.6665 6.79602 30.2552C6.41441 30.8652 6.09798 31.5129 5.85185 32.1877C5.68202 32.6442 5.60578 33.1296 5.62756 33.6155C5.63596 33.8738 5.70769 34.1261 5.83656 34.3509C5.96543 34.5756 6.14759 34.766 6.36734 34.9056C6.71653 35.1198 7.10715 35.2594 7.5141 35.3154C8.09624 35.3985 8.68599 35.4165 9.27221 35.369C9.75727 35.3334 10.2402 35.2737 10.7192 35.1901C12.3206 34.925 13.9007 34.5465 15.4473 34.0575C17.2145 33.5207 18.9527 32.9213 20.68 32.2682C22.2844 31.6706 23.8797 31.0443 25.4461 30.3536C26.5808 29.855 27.7107 29.3427 28.8357 28.8166C30.3967 28.0866 31.9251 27.2904 33.4318 26.4548C34.8245 25.683 36.1926 24.8706 37.5359 24.0177C38.9105 23.1553 40.2562 22.2469 41.573 21.2926C42.7885 20.4123 43.9895 19.5033 45.1616 18.5747C46.1263 17.8088 47.0777 17.0335 48.0158 16.2486C48.6435 15.7118 49.2476 15.175 49.8517 14.6114C50.3051 14.1927 50.7489 13.7638 51.183 13.3249C52.0573 12.4638 52.8448 11.5205 53.5343 10.5085C53.8664 10.0211 54.1287 9.4906 54.3139 8.93213C54.4323 8.58087 54.4663 8.20718 54.4134 7.84065C54.367 7.57818 54.2595 7.33 54.0994 7.11572C53.9393 6.90144 53.731 6.72695 53.4909 6.60604C53.0725 6.37725 52.6182 6.2194 52.147 6.13903C51.8129 6.07524 51.4753 6.03103 51.1359 6.00662C50.6717 5.96459 50.2057 5.94667 49.7396 5.95294C49.414 5.95294 49.0902 5.98873 48.7665 6.00841C48.6055 6.00841 48.4427 6.0263 48.2817 6.04062C47.891 6.07998 47.5003 6.11577 47.1114 6.16408C46.6556 6.22134 46.2071 6.28933 45.744 6.35732C45.5867 6.38058 45.4293 6.41279 45.2665 6.42353C45.5523 6.32333 45.8345 6.21776 46.1221 6.12114C47.0378 5.80691 47.9708 5.54406 48.9166 5.33384C49.4339 5.22291 49.953 5.12628 50.4775 5.06187C50.872 5.00733 51.2695 4.97686 51.6677 4.97061C51.7817 4.97061 51.8974 4.94199 52.0114 4.94735C52.615 4.95295 53.2154 5.03411 53.7984 5.18891C54.1875 5.29389 54.5505 5.4773 54.8646 5.72764C55.1786 5.97797 55.437 6.28982 55.6235 6.64361C55.8314 7.02989 55.946 7.45863 55.9581 7.89612C55.9581 7.94622 55.9273 8.01243 55.9997 8.04642V8.3506ZM41.9167 5.35531L41.9312 5.32311C41.8877 5.28374 41.848 5.23901 41.8009 5.20322C41.2885 4.80766 40.7514 4.44431 40.1929 4.11533C39.4426 3.66779 38.6561 3.28237 37.8416 2.96302C36.9127 2.59423 35.9511 2.31209 34.9692 2.12026C34.5749 2.04332 34.177 1.98069 33.7773 1.92344C33.5186 1.88765 33.2582 1.87334 32.9959 1.85365C32.6993 1.83218 32.4026 1.80176 32.1042 1.79997C31.7062 1.79997 31.3083 1.8125 30.9086 1.82502C30.715 1.82502 30.5215 1.83934 30.328 1.85544C29.9952 1.88407 29.6605 1.90554 29.3295 1.95028C28.8376 2.01827 28.3456 2.08626 27.859 2.18288C27.022 2.34938 26.1977 2.57298 25.3919 2.85208C24.4648 3.17051 23.5633 3.55749 22.695 4.00976C22.0311 4.35605 21.3874 4.73896 20.7669 5.1567C20.7144 5.19249 20.662 5.23364 20.6059 5.2748C20.6312 5.29269 20.6384 5.30164 20.6475 5.30342C20.6788 5.30521 20.7102 5.30521 20.7415 5.30342C22.071 5.31953 23.3986 5.30342 24.7208 5.32311C26.8642 5.35174 29.0094 5.32311 31.1528 5.33563C33.0809 5.33563 35.0072 5.31953 36.9408 5.35531C38.5488 5.38573 40.1568 5.35531 41.7647 5.35531C41.8172 5.36784 41.866 5.36784 41.9167 5.35531Z" fill="white"/>
<path d="M19.3545 49C19.3077 48.9718 19.258 48.9484 19.2062 48.9303C18.9842 48.8809 18.7842 48.7623 18.6357 48.5918C18.4872 48.4214 18.398 48.2082 18.3814 47.9837C18.3706 47.8352 18.3597 47.6849 18.3579 47.5346C18.3579 46.9423 18.3579 46.3501 18.3579 45.7578C18.3524 45.5989 18.3818 45.4408 18.4443 45.2943C18.5068 45.1479 18.6007 45.0166 18.7196 44.9097C18.9318 44.7279 19.2006 44.6236 19.4811 44.6145C19.5481 44.6145 19.6168 44.6145 19.6855 44.6145C20.2155 44.6145 20.7455 44.5876 21.2754 44.5912C21.4358 44.5852 21.5957 44.6107 21.746 44.6663C21.8963 44.7219 22.0339 44.8064 22.1509 44.9151C22.263 45.0253 22.3515 45.1567 22.4112 45.3015C22.4708 45.4463 22.5004 45.6015 22.4981 45.7578C22.5126 46.2195 22.5072 46.6811 22.509 47.1445C22.509 47.1893 22.509 47.2358 22.4981 47.2912C22.4493 47.2912 22.4095 47.3038 22.3697 47.3056H21.8976L19.8664 47.3342C19.8357 47.3342 19.8049 47.3342 19.7579 47.3342C19.7148 47.4889 19.7283 47.6536 19.7959 47.7994C19.8165 47.8453 19.8511 47.8836 19.8949 47.909C19.9388 47.9344 19.9895 47.9455 20.04 47.9408C20.4018 47.9241 20.7635 47.9062 21.1253 47.8871C21.2772 47.8871 21.4292 47.8656 21.5793 47.8549L22.3299 47.7976C22.3299 47.7976 22.348 47.8084 22.3679 47.8191V48.7495C22.3191 48.7674 22.2689 48.7811 22.2178 48.7907C21.9537 48.8157 21.6878 48.839 21.4219 48.8587C21.1181 48.8819 20.816 48.8998 20.5176 48.9213C20.3928 48.9303 20.2661 48.9392 20.1413 48.9535C20.1142 48.9535 20.0889 48.9786 20.0618 48.9929L19.3545 49ZM21.1126 46.3161C21.1373 46.147 21.1373 45.9752 21.1126 45.8061C21.1068 45.7489 21.0816 45.6952 21.0413 45.6537C21.001 45.6122 20.9478 45.5852 20.8902 45.5771C20.8351 45.5638 20.7786 45.5566 20.7219 45.5556C20.4814 45.5556 20.2408 45.5717 19.9984 45.5825C19.9347 45.5819 19.873 45.6042 19.8247 45.6454C19.7764 45.6866 19.745 45.7437 19.7362 45.8061C19.7162 45.9845 19.7162 46.1645 19.7362 46.3429C19.7742 46.3429 19.7886 46.3572 19.8031 46.3572C20.1757 46.3572 20.5483 46.3572 20.9191 46.3572C20.9845 46.3504 21.0492 46.3384 21.1126 46.3215V46.3161Z" fill="white"/>
<path d="M33.4936 31.1338C33.4936 31.2 33.5026 31.2483 33.5026 31.2984C33.5026 31.9801 33.5026 32.6601 33.5026 33.3418C33.5123 34.4631 33.5225 35.585 33.5334 36.7075C33.5442 37.7882 33.5545 38.8689 33.5641 39.9497C33.5641 40.159 33.5641 40.1662 33.3652 40.202C33.0034 40.2664 32.6417 40.3254 32.2799 40.3809C31.9182 40.4364 31.5853 40.4632 31.2381 40.5008C31.0699 40.5169 30.9034 40.5294 30.7352 40.533C30.0805 40.5455 29.4239 40.5688 28.7673 40.5616C28.3404 40.5616 27.9118 40.5115 27.4849 40.4775C27.1503 40.4489 26.8175 40.4203 26.4865 40.3755C26.103 40.3218 25.7214 40.2622 25.3415 40.1966C24.6886 40.0713 24.0428 39.9103 23.4061 39.7224C22.5299 39.4569 21.6725 39.1341 20.8395 38.7562C19.8795 38.3229 18.9538 37.8186 18.0703 37.2478C18.0359 37.2246 18.0052 37.1995 17.9509 37.1602C18.0179 37.1405 18.0649 37.1226 18.1119 37.1101C18.7938 36.9311 19.4775 36.7522 20.1576 36.5554C20.2046 36.5411 20.2544 36.5392 20.3023 36.5499C20.3502 36.5606 20.3945 36.5834 20.4307 36.6162C21.0555 37.0649 21.7086 37.4737 22.386 37.8401C23.3029 38.3446 24.2614 38.7714 25.2511 39.1159C25.6219 39.2465 25.9999 39.3538 26.3743 39.4737C26.4177 39.4862 26.4629 39.4916 26.5317 39.5059C26.5317 39.4147 26.548 39.3395 26.548 39.2644C26.548 37.7208 26.548 36.1772 26.548 34.6337C26.548 34.3814 26.548 34.4279 26.7505 34.3474C27.9262 33.8893 29.1019 33.4259 30.227 32.8533C30.9975 32.4632 31.7554 32.0517 32.5187 31.6473C32.8117 31.4934 33.1011 31.336 33.3923 31.1821C33.4194 31.166 33.4466 31.157 33.4936 31.1338Z" fill="white"/>
<path d="M33.6727 13.0869C33.7106 13.2462 33.7088 15.8353 33.6727 15.9713H26.3852C26.3771 15.9323 26.3717 15.8928 26.3689 15.8532C26.3689 14.9752 26.3689 14.0967 26.3689 13.2175C26.3689 13.0851 26.3689 13.0798 26.5118 13.0762H33.4827C33.5461 13.0762 33.6112 13.0833 33.6727 13.0869Z" fill="white"/>
<path d="M26.3762 23.7298V20.8812L26.3961 20.8651C26.4002 20.8643 26.4045 20.8643 26.4087 20.8651C26.4233 20.8599 26.4385 20.8563 26.4539 20.8544H33.5461C33.5774 20.8526 33.6088 20.8526 33.6401 20.8544C33.6502 20.8575 33.6599 20.8617 33.6691 20.8669C33.7071 20.9761 33.7179 23.5258 33.6817 23.7298L33.6709 23.7405C33.6709 23.7405 33.6709 23.7405 33.6564 23.7405C33.6259 23.7459 33.5951 23.7495 33.5642 23.7513H26.4395C26.4178 23.7458 26.3967 23.7386 26.3762 23.7298V23.7298Z" fill="white"/>
<path d="M33.689 16.9984V19.8255C33.5551 19.8612 26.5389 19.8648 26.3798 19.8255V16.9984L26.3924 16.9858H26.4051C26.4308 16.9806 26.4567 16.977 26.4829 16.9751H33.6238C33.6462 16.981 33.668 16.9888 33.689 16.9984Z" fill="white"/>
<path d="M32.0358 48.7279H30.681C30.6722 48.6885 30.6667 48.6484 30.6647 48.608C30.6647 48.4291 30.6647 48.2502 30.6647 48.0712C30.6575 47.3758 30.6497 46.6798 30.6412 45.9831C30.6421 45.9156 30.6384 45.848 30.6304 45.7809C30.6285 45.7443 30.6194 45.7085 30.6034 45.6754C30.5875 45.6423 30.5651 45.6127 30.5375 45.5882C30.5099 45.5638 30.4777 45.545 30.4427 45.5329C30.4078 45.5208 30.3707 45.5157 30.3337 45.5179C30.0197 45.5039 29.705 45.5231 29.395 45.5752C29.2937 45.5949 29.1906 45.602 29.0785 45.6181C29.0676 46.6684 29.1219 47.7026 29.1074 48.7512H27.7526C27.7526 48.6921 27.7346 48.6331 27.7327 48.5722C27.7237 47.9388 27.7147 47.3054 27.7092 46.672C27.7092 46.2086 27.7092 45.7469 27.7002 45.2835C27.6911 44.6716 27.6785 44.0578 27.6694 43.4459C27.6694 43.3851 27.6694 43.3224 27.6694 43.2473C27.8214 43.2312 27.9588 43.2079 28.0981 43.2043C28.3658 43.2043 28.6407 43.2043 28.9012 43.2043C29.0314 43.2043 29.0387 43.2133 29.0405 43.3511C29.0405 43.7089 29.0405 44.0775 29.0495 44.4425C29.0529 44.5055 29.0601 44.5683 29.0712 44.6304C29.2792 44.5946 29.4691 44.5606 29.6591 44.5338C29.8182 44.5105 29.981 44.4909 30.142 44.4801C30.3771 44.4658 30.6141 44.4479 30.8474 44.4569C31.0042 44.4601 31.1593 44.4885 31.3068 44.541C31.504 44.6102 31.6757 44.7361 31.8001 44.9025C31.9245 45.0689 31.9958 45.2682 32.005 45.475C32.0077 45.5167 32.0077 45.5585 32.005 45.6002C32.0141 46.103 32.0231 46.6076 32.0285 47.1104C32.0285 47.5774 32.0285 48.0462 32.0376 48.5132L32.0358 48.7279Z" fill="white"/>
<path d="M41.1537 47.0587H40.8806L38.6287 47.0891H38.3954C38.3954 47.2358 38.3954 47.3647 38.3954 47.4899C38.406 47.5498 38.4375 47.6041 38.4844 47.6434C38.5314 47.6826 38.5908 47.7043 38.6522 47.7046C38.8512 47.7046 39.0502 47.6921 39.2491 47.6832H39.3739C39.7917 47.6527 40.2096 47.6205 40.6274 47.5937C40.7468 47.5847 40.8661 47.5937 40.9891 47.5937C40.9891 47.6223 40.9891 47.6563 40.9891 47.6921C40.9891 47.9247 40.9891 48.1591 40.9891 48.3935C40.9891 48.5241 40.9674 48.551 40.8408 48.5617C40.4501 48.5957 40.0576 48.6225 39.6687 48.6619C39.1276 48.7111 38.5842 48.7314 38.0409 48.7227C37.7759 48.721 37.5211 48.6212 37.3266 48.4431C37.1322 48.265 37.0121 48.0214 36.99 47.7601C36.9719 47.5543 36.9647 47.3468 36.9628 47.1392C36.9628 46.6149 36.9628 46.0889 36.952 45.5646C36.947 45.3508 36.9981 45.1394 37.1003 44.9509C37.1798 44.8071 37.2922 44.6837 37.4285 44.5905C37.5648 44.4973 37.7212 44.4369 37.8853 44.4141C38.0248 44.3923 38.1656 44.3803 38.3068 44.3783C38.4442 44.3783 38.5817 44.3783 38.7173 44.3783C39.0791 44.3783 39.4517 44.3568 39.8189 44.3551C40.0181 44.3509 40.2161 44.3862 40.4013 44.4588C40.5768 44.5247 40.7312 44.636 40.8483 44.7811C40.9654 44.9262 41.0409 45.0998 41.0669 45.2837C41.0947 45.4895 41.108 45.697 41.1067 45.9046C41.1067 46.1336 41.1067 46.3627 41.1067 46.5899C41.1067 46.7044 41.1212 46.8171 41.1266 46.9317C41.1646 46.9531 41.1574 46.9943 41.1537 47.0587ZM38.3863 46.1175H38.5871H39.468C39.5354 46.1238 39.6032 46.1238 39.6706 46.1175C39.7031 46.1175 39.752 46.071 39.752 46.0459C39.755 45.8758 39.749 45.7055 39.7339 45.536C39.729 45.4965 39.7123 45.4593 39.6858 45.4293C39.6594 45.3994 39.6245 45.3779 39.5855 45.3678C39.4894 45.3453 39.3912 45.3327 39.2925 45.3302C39.2057 45.3302 39.1117 45.3481 39.0284 45.3499C38.9036 45.3499 38.777 45.3499 38.6522 45.3499C38.591 45.3456 38.5303 45.3628 38.4806 45.3985C38.431 45.4342 38.3957 45.486 38.3809 45.5449C38.3445 45.7325 38.3463 45.9253 38.3863 46.1122V46.1175Z" fill="white"/>
<path d="M33.7414 24.771L26.3961 28.2995C26.3635 28.1742 26.3527 24.9696 26.3816 24.7692L26.3924 24.7602C26.3924 24.7602 26.3924 24.7602 26.4051 24.7602C26.4306 24.7539 26.4566 24.7503 26.4829 24.7495H33.7324L33.7414 24.771Z" fill="white"/>
<path d="M43.1832 44.7611C43.2297 44.7424 43.275 44.7209 43.3188 44.6967C43.7004 44.4581 44.1349 44.315 44.5849 44.2798C44.9031 44.2316 45.2283 44.2604 45.5327 44.3639C45.7057 44.4281 45.8581 44.5373 45.9736 44.6799C46.0892 44.8226 46.1637 44.9934 46.1893 45.1744C46.2096 45.3029 46.2199 45.4327 46.2201 45.5627C46.2201 46.0405 46.2201 46.5182 46.2201 46.9942C46.2201 47.4701 46.24 47.9085 46.249 48.3648C46.249 48.4166 46.249 48.4667 46.249 48.5133C45.797 48.557 45.3421 48.5642 44.8888 48.5347C44.8804 48.4922 44.875 48.4492 44.8725 48.4059C44.8635 47.8691 44.8545 47.3466 44.849 46.817C44.849 46.4735 44.849 46.1317 44.84 45.7882C44.84 45.5233 44.7206 45.3999 44.4565 45.4035C44.089 45.4046 43.7236 45.4576 43.3713 45.5609C43.3361 45.5754 43.3022 45.5928 43.27 45.6128C43.2826 46.588 43.2953 47.5685 43.3098 48.5437C42.8608 48.5893 42.4087 48.5959 41.9586 48.5634C41.9496 48.5415 41.9429 48.5187 41.9387 48.4954C41.9387 48.2574 41.917 48.0194 41.9134 47.7797C41.9134 47.1606 41.9134 46.5415 41.9044 45.9224C41.9044 45.4715 41.8845 45.0277 41.8754 44.5679V44.4909C41.8754 44.4176 41.9116 44.3889 41.9821 44.3889C42.125 44.3889 42.2661 44.3889 42.409 44.3889H42.977C43.0909 44.3889 43.0963 44.3979 43.1235 44.507C43.1416 44.5858 43.1596 44.6609 43.1832 44.7611Z" fill="white"/>
<path d="M34.3039 47.6259C34.3356 47.6326 34.3676 47.6373 34.3998 47.6402C34.8158 47.6402 35.2318 47.6402 35.646 47.6402C35.8866 47.6402 36.1272 47.6241 36.3695 47.6152C36.4365 47.6152 36.498 47.6152 36.498 47.71V48.6047C36.4948 48.6291 36.4887 48.6532 36.4799 48.6762C36.4347 48.6762 36.3894 48.687 36.3424 48.687H35.6714L32.7412 48.721C32.6851 48.721 32.629 48.721 32.5603 48.712C32.5528 48.6843 32.5467 48.6562 32.5422 48.6279C32.5422 48.347 32.5422 48.0661 32.5332 47.7852C32.5309 47.7468 32.5374 47.7083 32.5521 47.6727C32.5668 47.6371 32.5894 47.6052 32.6182 47.5794C33.0885 47.1339 33.5551 46.6847 34.0236 46.2374L34.6114 45.672C34.6313 45.6505 34.6458 45.6237 34.6838 45.5718C33.9476 45.5521 33.2368 45.5825 32.5133 45.5718C32.5133 45.5163 32.497 45.477 32.4952 45.4376C32.4952 45.1567 32.4807 44.8775 32.4753 44.5966C32.4797 44.5792 32.4864 44.5623 32.4952 44.5465C32.5299 44.541 32.5649 44.5374 32.6001 44.5358C33.282 44.5268 33.9639 44.5161 34.6458 44.5089C35.051 44.5089 35.4561 44.5089 35.8595 44.5089C36.0006 44.5089 36.1416 44.4875 36.2827 44.4839C36.4238 44.4803 36.4238 44.4928 36.4292 44.6253C36.4292 44.8954 36.4437 45.162 36.4527 45.434C36.4559 45.4722 36.4497 45.5105 36.4345 45.5457C36.4194 45.5809 36.3959 45.612 36.3659 45.6362C36.1633 45.8151 35.9698 46.0102 35.7745 46.198L34.4107 47.5168C34.3871 47.5293 34.3582 47.5687 34.3039 47.6259Z" fill="white"/>
<path d="M16.5998 44.4767C16.5998 44.6055 16.5998 44.7129 16.5998 44.8221C16.5998 44.9616 16.5998 45.1012 16.5998 45.2425C16.6107 46.2445 16.6197 47.2466 16.6324 48.2486C16.6324 48.4275 16.6487 48.5903 16.6541 48.7621C16.6541 48.8068 16.6541 48.8533 16.6541 48.9106C16.6128 48.9183 16.5711 48.9236 16.5293 48.9267C16.3701 48.9267 16.2127 48.9267 16.0554 48.9267L15.4133 48.9535C15.3608 48.9535 15.3102 48.9535 15.2523 48.9535C15.244 48.9152 15.2386 48.8763 15.236 48.8372C15.236 48.5778 15.236 48.3183 15.236 48.0589C15.2143 47.0211 15.2143 45.9851 15.1944 44.9527C15.1944 44.8095 15.1727 44.6646 15.16 44.5018C14.6174 44.4803 14.0748 44.5125 13.5322 44.4928C13.4759 44.1487 13.4601 43.7992 13.4851 43.4514C13.4978 43.4514 13.5105 43.4318 13.5249 43.4318C13.7329 43.4192 13.9427 43.4013 14.1508 43.3996C14.7929 43.3996 15.4332 43.3996 16.0753 43.3996C16.7174 43.3996 17.4083 43.3781 18.0649 43.3691H18.2295C18.2809 43.7201 18.2857 44.0762 18.244 44.4284C18.0938 44.4409 17.9401 44.4642 17.7846 44.466C17.4807 44.466 17.175 44.466 16.8693 44.466C16.797 44.4642 16.7138 44.4714 16.5998 44.4767Z" fill="white"/>
<path d="M26.9966 45.6522H26.0162L24.8532 45.6808C24.8146 45.6768 24.7755 45.6812 24.7388 45.6937C24.7021 45.7061 24.6685 45.7263 24.6405 45.7529C24.6124 45.7794 24.5906 45.8117 24.5764 45.8475C24.5622 45.8832 24.5561 45.9216 24.5584 45.9599C24.5584 46.3482 24.5692 46.7365 24.5746 47.1266C24.5746 47.2572 24.5746 47.386 24.5746 47.5166C24.5695 47.562 24.5747 47.608 24.5899 47.6512C24.6052 47.6943 24.6301 47.7335 24.6628 47.7658C24.6954 47.7982 24.735 47.8228 24.7787 47.8379C24.8223 47.853 24.8688 47.8581 24.9147 47.853C25.0666 47.853 25.2186 47.8387 25.3687 47.828L26.5426 47.7385C26.6981 47.726 26.8537 47.717 27.0255 47.7063V48.694C26.9806 48.7122 26.9339 48.726 26.8862 48.7351C26.5064 48.7709 26.1266 48.7978 25.7467 48.8371C25.2656 48.8854 24.7845 48.8944 24.2997 48.898C24.1558 48.9001 24.0129 48.8739 23.8794 48.8209C23.7458 48.7679 23.6243 48.6892 23.5218 48.5893C23.4193 48.4894 23.3379 48.3703 23.2823 48.239C23.2268 48.1077 23.1982 47.9667 23.1982 47.8244C23.1982 47.1695 23.1783 46.5164 23.1674 45.8562C23.161 45.6479 23.205 45.4411 23.2958 45.2532C23.3766 45.0764 23.5062 44.9259 23.6698 44.8188C23.8333 44.7118 24.0241 44.6527 24.2201 44.6484C24.6741 44.6197 25.1245 44.6215 25.5875 44.6144C25.8552 44.6144 26.1302 44.6144 26.3906 44.6144C26.5371 44.6144 26.6836 44.5929 26.8302 44.5911C26.9767 44.5893 26.9712 44.5911 26.9749 44.7325C26.9749 44.9812 26.9911 45.2299 26.9984 45.4786C27.0074 45.5233 27.002 45.5734 26.9966 45.6522Z" fill="white"/>
</g>
<defs>
<filter id="filter0_d_2_52" x="0" y="0" width="60" height="57" filterUnits="userSpaceOnUse" color-interpolation-filters="sRGB">
<feFlood flood-opacity="0" result="BackgroundImageFix"/>
<feColorMatrix in="SourceAlpha" type="matrix" values="0 0 0 0 0 0 0 0 0 0 0 0 0 0 0 0 0 0 127 0" result="hardAlpha"/>
<feOffset dy="4"/>
<feGaussianBlur stdDeviation="2"/>
<feComposite in2="hardAlpha" operator="out"/>
<feColorMatrix type="matrix" values="0 0 0 0 0 0 0 0 0 0 0 0 0 0 0 0 0 0 0.25 0"/>
<feBlend mode="normal" in2="BackgroundImageFix" result="effect1_dropShadow_2_52"/>
<feBlend mode="normal" in="SourceGraphic" in2="effect1_dropShadow_2_52" result="shape"/>
</filter>
<clipPath id="clip0_2_52">
<rect width="52" height="49" fill="white" transform="translate(4)"/>
</clipPath>
</defs>
</svg>
